<svg width="96" height="96" viewBox="0 0 96 96" fill="none" xmlns="http://www.w3.org/2000/svg">
<rect width="96" height="96" rx="48" fill="#04101C"/>
<path d="M19.0888 27.2432H76.9112C77.3449 27.2432 77.7539 27.29 78.1394 27.4053L54.4561 50.054C50.8904 53.4673 45.0861 53.4673 41.5204 50.054L17.8606 27.4053C18.2461 27.29 18.6551 27.2432 19.0888 27.2432ZM14.4397 30.6801L32.5562 47.9999L14.4397 65.3197C14.3192 64.9507 14.2703 64.5592 14.2703 64.1441V31.8558C14.2703 31.4406 14.3192 31.0491 14.4397 30.6801ZM81.5603 30.6801C81.6808 31.0491 81.7297 31.4406 81.7297 31.8558V64.1441C81.7297 64.5592 81.6808 64.9507 81.5603 65.3197L63.4202 47.9999L81.5603 30.6801ZM35.9537 51.2522L38.0994 53.3288C40.8219 55.9349 44.4108 57.2251 47.9765 57.2251C51.5663 57.2251 55.1311 55.9349 57.8535 53.3288L60.0228 51.2522L78.1394 68.5945C77.7539 68.7098 77.3449 68.7567 76.9112 68.7567H19.0888C18.6551 68.7567 18.2461 68.7098 17.8606 68.5945L35.9537 51.2522Z" fill="#F1F8FF"/>
</svg>
