<svg width="96" height="96" viewBox="0 0 96 96" fill="none" xmlns="http://www.w3.org/2000/svg">
<path d="M31.2479 54.2481C31.5956 53.8086 32.256 53.7906 32.6272 54.2103L41.8274 64.6151L37.1833 63.3561L32.6467 67.8927L31.476 61.161L26.354 65.9903L22.5366 65.2586L31.2479 54.2481Z" fill="#04101C"/>
<path d="M61.3559 44.638C61.7161 44.1828 62.4066 44.1828 62.7668 44.638L71.4398 55.6L66.8655 54.1366L65.6948 55.3073L61.7435 52.0878L52.6829 55.6L61.3559 44.638Z" fill="#04101C"/>
<path d="M88.9409 21.0135C89.4842 21.3641 89.6404 22.0887 89.2898 22.632L71.9172 49.1284C71.8717 49.2915 70.7648 49.9075 70.2622 49.2915L62.8541 40.2106C62.3817 39.6317 61.4953 39.6373 61.0304 40.2222L44.7967 60.6457C44.3514 61.2059 43.5122 61.239 43.0241 60.7157L32.71 49.6562C32.2238 49.1349 31.3887 49.1654 30.9418 49.7206L13.5968 71.2707C13.3746 71.5468 13.0392 71.7074 12.6848 71.7074H7.42503C6.44175 71.7074 5.89649 70.5686 6.51302 69.8026L30.5842 39.8959C31.0311 39.3407 31.8662 39.3103 32.3524 39.8315L42.6348 50.857C43.1229 51.3804 43.9621 51.3473 44.4075 50.7871L60.9655 29.9563C61.4305 29.3714 62.3168 29.3657 62.7891 29.9447L69.6537 38.3593C70.1563 38.9753 71.1135 38.922 71.5446 38.2541L83.8797 19.1404C84.2303 18.5971 84.9549 18.441 85.4982 18.7916L88.9409 21.0135Z" fill="#04101C"/>
<path d="M89.434 14.0791C90.0511 13.6942 90.8418 14.1834 90.7728 14.9075L89.2291 31.0967C89.1673 31.7447 88.4466 32.1025 87.893 31.76L75.6383 24.1776C75.0847 23.8351 75.0832 23.0304 75.6356 22.6859L89.434 14.0791Z" fill="#04101C"/>
<path d="M88.9886 62.3345C89.3949 62.8375 89.3164 63.5746 88.8135 63.9808L85.6256 66.5557C85.1226 66.962 84.3855 66.8836 83.9792 66.3806L72.7255 52.4473C72.3884 52.03 72.3781 51.4369 72.7006 51.0081L75.2403 47.6309C75.6985 47.0216 76.6077 47.0058 77.0867 47.5989L88.9886 62.3345Z" fill="#04101C"/>
<path d="M48 0C61.861 0 74.3496 5.87551 83.1117 15.2715C83.1773 15.5308 83.0811 15.821 82.8336 15.9804L75.2321 20.7216L74.4544 21.2412C74.2722 21.3629 74.045 21.3781 73.8527 21.2933C67.1629 14.816 58.0472 10.8293 48 10.8293C27.4712 10.8293 10.8293 27.4712 10.8293 48C10.8293 68.5288 27.4712 85.1707 48 85.1707C68.5288 85.1707 85.1707 68.5288 85.1707 48C85.1707 43.5266 84.6439 39.9529 83.1954 35.9806C83.0552 35.6808 83.0552 35.231 83.1954 35.0479L85.1041 32.7142C85.383 32.3733 85.8712 32.2916 86.2457 32.5232L89.4527 34.5074C90.0062 34.8499 90.7271 34.492 90.7889 33.844L91.2938 28.5481C91.3227 28.2449 91.7278 28.1752 91.852 28.4533C94.5175 34.424 96 41.0388 96 48C96 74.5097 74.5097 96 48 96C21.4903 96 0 74.5097 0 48C0 21.4903 21.4903 0 48 0Z" fill="#04101C"/>
</svg>
