<svg width="97" height="96" viewBox="0 0 97 96" fill="none" xmlns="http://www.w3.org/2000/svg">
<rect x="0.864746" width="96" height="96" rx="48" fill="#04101C"/>
<path fill-rule="evenodd" clip-rule="evenodd" d="M41.0989 57.3948C38.1853 55.1045 36.3483 53.5924 33.8391 50.7196L33.3081 50.1117L33.5351 49.3371C33.8178 48.3721 34.1142 47.6033 34.5179 46.8813C34.8433 46.2992 35.2187 45.7835 35.6599 45.247C35.7156 44.1347 35.6294 43.4607 35.2997 42.4352L27.8361 33.9134C27.1031 33.6388 26.745 33.6063 26.5366 33.6323C26.3698 33.6532 26.1337 33.7303 25.6624 34.1662L20.3424 40.9346C20.1858 41.2287 20.1313 41.4994 20.1893 41.945C20.2636 42.5167 20.5185 43.3189 21.0591 44.6354C25.2353 51.9506 29.531 56.697 37.3125 62.845C45.6613 69.3756 50.729 71.9923 58.8263 74.3209C60.2333 74.5352 61.073 74.5933 61.6461 74.5305C62.0928 74.4815 62.343 74.3647 62.5917 74.143L67.9118 67.3747C68.224 66.8137 68.2432 66.5661 68.224 66.3991C68.2001 66.1904 68.0839 65.8502 67.6439 65.2028L57.6002 59.9636C56.5258 59.8855 55.8505 59.9609 54.7829 60.2779C54.3657 60.8333 53.9534 61.3198 53.4646 61.7736C52.8584 62.3365 52.1813 62.8061 51.3105 63.3088L50.6114 63.7123L49.8953 63.34C46.5146 61.5823 44.5481 60.1857 41.0989 57.3948Z" fill="#F1F8FF"/>
<path d="M56.6978 38.7571C51.489 34.6629 48.4031 34.1502 43.1685 34.6771C42.9062 34.8071 42.8107 34.9374 42.7135 35.2559L42.944 43.1939C43.0471 43.5014 43.186 43.5884 43.5228 43.6488C47.0787 42.6985 48.6185 42.9724 51.5123 45.247L56.6978 38.7571Z" fill="#F1F8FF"/>
<path d="M56.6978 38.7571C61.9067 42.8513 63.2066 45.7858 63.9311 50.9968C63.8668 51.2823 63.7628 51.4059 63.4762 51.5756L55.6041 53.1448C55.2808 53.1172 55.1635 53.0029 55.0253 52.6899C55.1087 49.0101 54.4061 47.5215 51.5123 45.247L56.6978 38.7571Z" fill="#F1F8FF"/>
<path d="M64.8862 28.3395C58.5199 23.3355 50.7888 20.0677 44.1319 21.3896C43.8697 21.5195 43.7741 21.6498 43.677 21.9683L43.6341 30.3615C43.7372 30.6691 43.8761 30.7561 44.2129 30.8164C49.2574 29.1635 55.376 32.1002 59.4273 35.2846L64.8862 28.3395Z" fill="#F1F8FF"/>
<path d="M64.8862 28.3395C71.2526 33.3435 76.2542 40.0838 76.5423 46.8645C76.478 47.15 76.374 47.2737 76.0874 47.4433L67.9419 49.4677C67.6187 49.4402 67.5014 49.3258 67.3632 49.0128C67.7776 43.7206 63.4786 38.4689 59.4273 35.2846L64.8862 28.3395Z" fill="#F1F8FF"/>
</svg>
