<svg width="97" height="96" viewBox="0 0 97 96" fill="none" xmlns="http://www.w3.org/2000/svg">
<rect x="0.135254" width="96" height="96" rx="48" fill="#04101C"/>
<path d="M18.3822 45.8288C36.3461 37.812 59.5928 28.0378 62.8017 26.685C71.219 23.1443 73.8018 23.8228 72.514 31.6642C71.5892 37.3001 68.9207 55.9596 66.7938 67.5737C65.5317 74.461 62.7002 75.2773 58.2478 72.2976C56.1067 70.8636 45.2994 63.6139 42.9539 61.9116C40.8128 60.3602 37.8597 58.4941 41.5632 54.8185C42.881 53.5092 51.5199 45.1415 58.2507 38.6283C59.1326 37.7728 58.0248 36.3678 57.0071 37.0536C47.9351 43.1565 35.357 51.6271 33.7561 52.7305C31.3377 54.3965 29.015 55.1607 24.8456 53.9456C21.6954 53.0278 18.618 51.9331 17.4202 51.5155C12.8078 49.9089 13.9026 47.8282 18.3822 45.8288Z" fill="#F1F8FF"/>
</svg>
